Coordinates
version=1
nRows=60
nColumns=12
inDegrees=yes

Units are S.I. units (second, meters, Newtons, ...)
Angles are in degrees

endheader
time	SC_y	SC_z	SC_x	AC_y	AC_z	AC_x	GH_y	GH_z	GH_yy	EL_x	PS_y
       0.0              -40.89          14.96          39.77           38.0          -17.7          14.88         -168.4          -3.65         -143.5          69.95          90.71
   0.03368              -40.89          14.96          39.77           38.0          -17.7          14.88         -168.4         -3.646         -143.5          69.96          90.72
   0.06736              -40.88          14.97          39.76           38.0          -17.7          14.88         -168.3         -3.642         -143.5          69.96          90.73
     0.101              -40.88          14.97          39.75           38.0          -17.7          14.88         -168.3         -3.638         -143.5          69.96          90.74
    0.1347              -40.88          14.97          39.75           38.0         -17.69          14.88         -168.2         -3.634         -143.5          69.97          90.75
    0.1684              -40.88          14.97          39.74          38.01         -17.69          14.88         -168.2         -3.629         -143.5          69.97          90.76
    0.2021              -40.88          14.97          39.73          38.01         -17.69          14.89         -168.1         -3.624         -143.5          69.98          90.77
    0.2358              -40.87          14.98          39.72          38.01         -17.69          14.89         -168.1         -3.619         -143.5          69.99          90.78
    0.2694              -40.87          14.98          39.71          38.01         -17.68          14.89         -168.0         -3.613         -143.5          69.99           90.8
    0.3031              -40.87          14.98          39.71          38.02         -17.68          14.89         -167.9         -3.607         -143.5           70.0          90.81
    0.3368              -40.86          14.98           39.7          38.02         -17.68          14.89         -167.8           -3.6         -143.5           70.0          90.83
    0.3705              -40.86          14.99          39.68          38.02         -17.67          14.89         -167.8         -3.593         -143.5          70.01          90.84
    0.4042              -40.86          14.99          39.67          38.02         -17.67          14.89         -167.7         -3.586         -143.5          70.02          90.86
    0.4378              -40.85          14.99          39.66          38.03         -17.66          14.89         -167.6         -3.577         -143.6          70.03          90.88
    0.4715              -40.85           15.0          39.65          38.03         -17.66          14.89         -167.5         -3.569         -143.6          70.04           90.9
    0.5052              -40.84           15.0          39.63          38.04         -17.65           14.9         -167.3         -3.559         -143.6          70.05          90.92
    0.5389              -40.84           15.0          39.61          38.04         -17.65           14.9         -167.2         -3.548         -143.6          70.06          90.94
    0.5726              -40.83          15.01           39.6          38.05         -17.64           14.9         -167.1         -3.537         -143.6          70.07          90.97
    0.6062              -40.83          15.01          39.58          38.05         -17.63           14.9         -166.9         -3.524         -143.6          70.09           91.0
    0.6399              -40.82          15.02          39.56          38.06         -17.63           14.9         -166.8         -3.511         -143.6           70.1          91.03
    0.6736              -40.81          15.02          39.53          38.07         -17.62          14.91         -166.6         -3.495         -143.6          70.12          91.06
    0.7073              -40.81          15.03          39.51          38.07         -17.61          14.91         -166.4         -3.479         -143.6          70.13           91.1
     0.741               -40.8          15.04          39.48          38.08          -17.6          14.91         -166.2         -3.461         -143.6          70.15          91.14
    0.7746              -40.79          15.05          39.45          38.09         -17.59          14.92         -166.0          -3.44         -143.6          70.17          91.19
    0.8083              -40.78          15.05          39.41           38.1         -17.58          14.92         -165.7         -3.418         -143.6           70.2          91.24
     0.842              -40.76          15.06          39.37          38.11         -17.56          14.93         -165.4         -3.392         -143.6          70.22           91.3
    0.8757              -40.75          15.07          39.33          38.13         -17.55          14.93         -165.1         -3.364         -143.6          70.25          91.36
    0.9093              -40.74          15.09          39.28          38.14         -17.53          14.94         -164.7         -3.333         -143.6          70.29          91.43
     0.943              -40.72           15.1          39.23          38.16         -17.51          14.94         -164.3         -3.297         -143.6          70.33          91.51
    0.9767               -40.7          15.12          39.16          38.18         -17.49          14.95         -163.8         -3.256         -143.6          70.37           91.6
      1.01              -40.68          15.14          39.09           38.2         -17.47          14.96         -163.2         -3.209         -143.6          70.42          91.71
     1.044              -40.65          15.16          39.01          38.22         -17.44          14.97         -162.6         -3.156         -143.6          70.47          91.83
     1.078              -40.62          15.18          38.91          38.25          -17.4          14.98         -161.9         -3.095         -143.7          70.54          91.97
     1.111              -40.59          15.21           38.8          38.28         -17.37          14.99         -161.1         -3.023         -143.7          70.62          92.13
     1.145              -40.55          15.24          38.67          38.32         -17.32           15.0         -160.1         -2.939         -143.7           70.7          92.32
     1.179               -40.5          15.28          38.52          38.37         -17.27          15.02         -158.9         -2.841         -143.7          70.81          92.54
     1.212              -40.45          15.32          38.34          38.42          -17.2          15.04         -157.5         -2.723         -143.7          70.93          92.81
     1.246              -40.38          15.38          38.12          38.48         -17.13          15.07         -155.9         -2.583         -143.8          71.08          93.13
      1.28               -40.3          15.45          37.86          38.56         -17.04          15.09         -153.9         -2.413         -143.8          71.26          93.51
     1.314               -40.2          15.53          37.54          38.66         -16.93          15.13         -151.5         -2.205         -143.8          71.48          93.98
     1.347              -40.08          15.63          37.14          38.77         -16.79          15.17         -148.4         -1.948         -143.9          71.75          94.56
     1.381              -39.93          15.75          36.65          38.92         -16.62          15.23         -144.7         -1.629         -144.0          72.09          95.28
     1.415              -39.73          15.91          36.03           39.1          -16.4           15.3         -140.0         -1.226         -144.0          72.52          96.19
     1.448              -39.49          16.11          35.24          39.34         -16.13          15.39         -134.0        -0.7138         -144.1          73.06          97.35
     1.482              -39.18          16.36          34.22          39.64         -15.77           15.5         -126.3       -0.05839         -144.3          73.75          98.83
     1.516              -38.78          16.69          32.93          40.02         -15.32          15.65         -116.4         0.7827         -144.4          74.64          100.7
     1.549              -38.27          17.11          31.27          40.52         -14.75          15.83         -103.8          1.857         -144.7          75.78          103.2
     1.583              -37.62          17.63          29.18          41.13         -14.02          16.07         -87.93          3.208         -144.9          77.21          106.2
     1.617              -36.84          18.28          26.64          41.89         -13.14          16.35         -68.61          4.854         -145.3          78.95          109.9
      1.65              -35.93          19.02          23.69          42.76         -12.11          16.68         -46.21          6.762         -145.7          80.97          114.2
     1.684              -34.95          19.82           20.5           43.7          -11.0          17.04         -21.96          8.829         -146.1          83.15          118.9
     1.718              -33.97          20.63          17.31          44.65         -9.894           17.4          2.291          10.89         -146.5          85.34          123.6
     1.751              -33.06          21.37          14.36          45.52         -8.869          17.73          24.69           12.8         -146.9          87.36          127.9
     1.785              -32.28          22.01          11.82          46.28         -7.986          18.01          44.01          14.45         -147.3           89.1          131.6
     1.819              -31.63          22.54          9.729          46.89          -7.26          18.24          59.86           15.8         -147.5          90.53          134.7
     1.852              -31.12          22.96           8.07          47.39         -6.684          18.43          72.47          16.87         -147.8          91.67          137.1
     1.886              -30.72          23.29          6.771          47.77         -6.232          18.58          82.35          17.72         -147.9          92.56          139.0
      1.92              -30.41          23.54          5.758          48.07          -5.88          18.69          90.04          18.37         -148.1          93.25          140.5
     1.953              -30.17          23.74          4.967           48.3         -5.605          18.78          96.05          18.88         -148.2          93.79          141.6
     1.987              -29.98           23.9          4.345          48.49         -5.389          18.85          100.8          19.29         -148.2          94.22          142.6
